<svg xmlns="http://www.w3.org/2000/svg" version="1.1" xmlns:xlink="http://www.w3.org/1999/xlink" xmlns:svgjs="http://svgjs.dev/svgjs" width="1000" height="999" viewBox="0 0 1000 999"><g transform="matrix(1,0,0,1,-0.215743440233382,-0.21552769679306039)"><svg viewBox="0 0 343 343" data-background-color="#ffffff" preserveAspectRatio="xMidYMid meet" height="999" width="1000" xmlns="http://www.w3.org/2000/svg" xmlns:xlink="http://www.w3.org/1999/xlink"><g id="tight-bounds" transform="matrix(1,0,0,1,0.0740000000000407,0.07400000000001228)"><svg viewBox="0 0 342.85155851775386 342.85155851775386" height="342.85155851775386" width="342.85155851775386"><g><svg></svg></g><g><svg viewBox="0 0 342.85155851775386 342.85155851775386" height="342.85155851775386" width="342.85155851775386"><g><path d="M0 171.426c0-94.676 76.75-171.426 171.426-171.426 94.676 0 171.426 76.75 171.426 171.426 0 94.676-76.75 171.426-171.426 171.426-94.676 0-171.426-76.75-171.426-171.426zM171.426 331.006c88.134 0 159.581-71.447 159.58-159.58 0-88.134-71.447-159.581-159.58-159.581-88.134 0-159.581 71.447-159.581 159.581 0 88.134 71.447 159.581 159.581 159.58z" data-fill-palette-color="tertiary" fill="#7f21e7" stroke="transparent"></path><ellipse rx="164.56874808852186" ry="164.56874808852186" cx="171.42577925887693" cy="171.42577925887693" fill="#7f21e7" stroke="transparent" stroke-width="0" fill-opacity="1" data-fill-palette-color="tertiary"></ellipse></g><g transform="matrix(1,0,0,1,64.84655864529837,105.75196373994649)"><svg viewBox="0 0 213.1584412271571 131.34763103786088" height="131.34763103786088" width="213.1584412271571"><g><svg viewBox="0 0 213.1584412271571 131.34763103786088" height="131.34763103786088" width="213.1584412271571"><g><svg viewBox="0 0 213.1584412271571 131.34763103786088" height="131.34763103786088" width="213.1584412271571"><g><svg viewBox="0 0 213.1584412271571 131.34763103786088" height="131.34763103786088" width="213.1584412271571"><g id="textblocktransform"><svg viewBox="0 0 213.1584412271571 131.34763103786088" height="131.34763103786088" width="213.1584412271571" id="textblock"><g><svg viewBox="0 0 213.1584412271571 131.34763103786088" height="131.34763103786088" width="213.1584412271571"><g transform="matrix(1,0,0,1,0,0)"><svg width="213.1584412271571" viewBox="0.75 -35 56.79999923706055 35" height="131.34763103786088" data-palette-color="#ffffff"><path d="M25.35 0L22.8-8.7 7.8-8.7 5.25 0 0.75 0 11.35-35 19.25-35 29.85 0 25.35 0ZM15.6-33.2L15-33.2 8.95-12.6 21.65-12.6 15.6-33.2ZM42.65-35L52.75-1.8 53.35-1.8 53.35-35 57.55-35 57.55 0 49.15 0 39.05-33.2 38.45-33.2 38.45 0 34.25 0 34.25-35 42.65-35Z" opacity="1" transform="matrix(1,0,0,1,0,0)" fill="#ffffff" class="undefined-text-0" data-fill-palette-color="quaternary" id="text-0"></path></svg></g></svg></g></svg></g></svg></g><g></g></svg></g></svg></g></svg></g></svg></g><defs></defs></svg><rect width="342.85155851775386" height="342.85155851775386" fill="none" stroke="none" visibility="hidden"></rect></g></svg></g></svg>